<svg width="1293" height="360" viewBox="0 0 1293 360" fill="none" xmlns="http://www.w3.org/2000/svg">
<g filter="url(#filter0_d_14_127)">
<path d="M5 283.039V3.12379V1H1288V351L1266.42 342.08L1248.85 333.16L1228.77 321.267L1203.17 303.852L1177.57 284.313L1154.48 267.748L1129.38 251.182L1108.8 238.015L1079.69 221.874L1052.08 207.432L1020.46 192.566L986.826 178.549L938.137 160.284L892.459 147.117L865.353 140.745L831.22 133.1L801.103 128.002L768.977 124.18L736.852 121.206L700.209 119.932H667.08H648.508L630.939 121.206L609.857 123.33L587.269 125.879L541.089 132.675L496.917 142.444L462.784 151.789L422.628 164.532L388.495 177.699L338.299 199.786L294.127 221.874L237.908 255.854L203.273 273.694L171.649 288.136L138.52 300.879L105.391 311.922L70.7563 321.692L40.6389 328.913L5 334.859V283.039Z" fill="#95C942"/>
<path d="M5 283.039V3.12379V1H1288V351L1266.42 342.08L1248.85 333.16L1228.77 321.267L1203.17 303.852L1177.57 284.313L1154.48 267.748L1129.38 251.182L1108.8 238.015L1079.69 221.874L1052.08 207.432L1020.46 192.566L986.826 178.549L938.137 160.284L892.459 147.117L865.353 140.745L831.22 133.1L801.103 128.002L768.977 124.18L736.852 121.206L700.209 119.932H667.08H648.508L630.939 121.206L609.857 123.33L587.269 125.879L541.089 132.675L496.917 142.444L462.784 151.789L422.628 164.532L388.495 177.699L338.299 199.786L294.127 221.874L237.908 255.854L203.273 273.694L171.649 288.136L138.52 300.879L105.391 311.922L70.7563 321.692L40.6389 328.913L5 334.859V283.039Z" stroke="#95C942"/>
</g>
<defs>
<filter id="filter0_d_14_127" x="0.5" y="0.5" width="1292" height="359.248" filterUnits="userSpaceOnUse" color-interpolation-filters="sRGB">
<feFlood flood-opacity="0" result="BackgroundImageFix"/>
<feColorMatrix in="SourceAlpha" type="matrix" values="0 0 0 0 0 0 0 0 0 0 0 0 0 0 0 0 0 0 127 0" result="hardAlpha"/>
<feOffset dy="4"/>
<feGaussianBlur stdDeviation="2"/>
<feComposite in2="hardAlpha" operator="out"/>
<feColorMatrix type="matrix" values="0 0 0 0 0 0 0 0 0 0 0 0 0 0 0 0 0 0 0.25 0"/>
<feBlend mode="normal" in2="BackgroundImageFix" result="effect1_dropShadow_14_127"/>
<feBlend mode="normal" in="SourceGraphic" in2="effect1_dropShadow_14_127" result="shape"/>
</filter>
</defs>
</svg>
