<svg width="1285" height="352" viewBox="0 0 1285 352" fill="none" xmlns="http://www.w3.org/2000/svg">
<path d="M1 295.784V351L31.5 344.766L72.5 333.634L103 325.173L139.5 312.26L178.5 295.784L210.5 278.863L264 247.247L314 212.959L356 185.796L394 162.641L480.5 112.768L508 98.5191L545 82.0433L574 70.4657L600.5 62.0051L633 53.5445L650.5 49.0916L677.5 43.7481L704.5 39.2952L733.5 36.1781L762.5 33.9517H789H806.5L825 34.8422L847.5 37.0687L865 38.8499L894 42.4122L921.5 46.4198L959.5 53.9898L992 62.8957L1023.5 73.1374L1075 90.5038L1115 103.863L1147 115.885L1169.5 125.682L1189 133.697C1202.67 137.853 1225.5 147.501 1247.5 152.845L1264.5 156.852L1275 159.969H1284V1H344.5L312.5 25.4911L283.5 50.8728L243 90.9491L223 112.768L188 152.845L142 199.601L95.5 239.677L46.5 271.293L1 295.784Z" fill="#FFA300" stroke="#FFA300"/>
</svg>
