<svg width="45" height="32" viewBox="0 0 45 32" fill="none" xmlns="http://www.w3.org/2000/svg">
    <path d="M40.4345 0H13.297C12.0487 0 11.0717 0.622222 10.4204 1.56444L0.632812 16L10.4204 30.4178C11.0717 31.36 12.0487 32 13.297 32H40.4345C42.4246 32 44.0528 30.4 44.0528 28.4444V3.55556C44.0528 1.6 42.4246 0 40.4345 0ZM35.007 22.3822L32.4561 24.8889L25.9612 18.5067L19.4662 24.8889L16.9153 22.3822L23.4102 16L16.9153 9.61778L19.4662 7.11111L25.9612 13.4933L32.4561 7.11111L35.007 9.61778L28.5121 16L35.007 22.3822Z" fill="#939598"/>
</svg>