<svg width="720" height="105" viewBox="0 0 720 105" fill="none" xmlns="http://www.w3.org/2000/svg">
<g filter="url(#filter0_d_4_357)">
<path d="M0 77.3592V0.582524V0H720V96L707.887 93.5534L698.028 91.1068L686.761 87.8447L672.394 83.068L658.028 77.7087L645.07 73.165L630.986 68.6214L619.437 65.0097L603.099 60.5825L587.606 56.6214L569.859 52.5437L550.986 48.699L523.662 43.6893L498.028 40.0777L482.817 38.3301L463.662 36.233L446.761 34.835L428.732 33.7864L410.704 32.9709L390.141 32.6214H371.549H361.127L351.268 32.9709L339.437 33.5534L326.761 34.2524L300.845 36.1165L276.056 38.7961L256.901 41.3592L234.366 44.8544L215.211 48.466L187.042 54.5243L162.254 60.5825L130.704 69.9029L111.268 74.7961L93.5211 78.7573L74.9296 82.2524L56.338 85.2816L36.9014 87.9612L20 89.9417L0 91.5728V77.3592Z" fill="#95C942"/>
<path d="M0 77.3592V0.582524V0H720V96L707.887 93.5534L698.028 91.1068L686.761 87.8447L672.394 83.068L658.028 77.7087L645.07 73.165L630.986 68.6214L619.437 65.0097L603.099 60.5825L587.606 56.6214L569.859 52.5437L550.986 48.699L523.662 43.6893L498.028 40.0777L482.817 38.3301L463.662 36.233L446.761 34.835L428.732 33.7864L410.704 32.9709L390.141 32.6214H371.549H361.127L351.268 32.9709L339.437 33.5534L326.761 34.2524L300.845 36.1165L276.056 38.7961L256.901 41.3592L234.366 44.8544L215.211 48.466L187.042 54.5243L162.254 60.5825L130.704 69.9029L111.268 74.7961L93.5211 78.7573L74.9296 82.2524L56.338 85.2816L36.9014 87.9612L20 89.9417L0 91.5728V77.3592Z" stroke="#95C942"/>
</g>
<path d="M0 80.855V96L17.1161 94.2901L40.1247 91.2366L57.2408 88.916L77.7241 85.374L99.6103 80.855L117.568 76.2137L147.592 67.542L175.651 58.1374L199.221 50.687L220.546 44.3359L269.088 30.6565L284.521 26.7481L305.284 22.229L321.559 19.0534L336.43 16.7328L354.669 14.4122L364.489 13.1908L379.641 11.7252L394.793 10.5038L411.068 9.64886L427.342 9.03817H442.214H452.034L462.416 9.28244L475.043 9.89313L484.864 10.3817L501.138 11.3588L516.57 12.458L537.896 14.5344L556.134 16.9771L573.811 19.7863L602.712 24.5496L625.16 28.2137L643.118 31.5114L655.744 34.1985L666.687 36.3969C674.357 37.5369 687.171 40.1832 699.517 41.6489L709.057 42.7481L714.949 43.6031H720V0H192.767L174.809 6.71756L158.535 13.6794L135.807 24.6718L124.583 30.6565L104.942 41.6489L79.127 54.4733L53.032 65.4657L25.5339 74.1374L0 80.855Z" fill="#FFA300" stroke="#FFA300"/>
<path d="M684.385 38.9552L720 43.9446V70L697.526 65.5715L670.903 59.0392L644.859 52.507L620.262 46.2717L600.295 41.3726L578.592 36.028L551.97 30.2381L529.109 26.2297L505.38 22.6667L482.519 20.1429L461.105 18.3614L441.428 17.4706L420.593 16.8768H404.677L385.578 17.4706L365.901 18.8067L347.091 20.4398L329.15 22.3698L311.498 24.8936L291.82 28.1597L270.696 32.1681L250.15 36.9188L227 43.113L240.022 38.2549L266.066 29.9412L283.428 24.8936L301.659 20.4398L319.6 16.4314L338.989 13.0168L358.087 10.3445L378.923 7.96919L400.047 5.89076L420.303 5H440.27L457.344 5.44538L473.838 6.03922L493.516 7.22689L511.746 8.85995L532.292 11.0868L554.574 14.2045L578.592 18.5098L604.742 23.5714L623.371 27.2227L645.405 31.6098L666.718 35.7676L684.385 38.9552Z" fill="#38434C" stroke="#38434C"/>
<defs>
<filter id="filter0_d_4_357" x="-4.5" y="-0.5" width="729" height="105.111" filterUnits="userSpaceOnUse" color-interpolation-filters="sRGB">
<feFlood flood-opacity="0" result="BackgroundImageFix"/>
<feColorMatrix in="SourceAlpha" type="matrix" values="0 0 0 0 0 0 0 0 0 0 0 0 0 0 0 0 0 0 127 0" result="hardAlpha"/>
<feOffset dy="4"/>
<feGaussianBlur stdDeviation="2"/>
<feComposite in2="hardAlpha" operator="out"/>
<feColorMatrix type="matrix" values="0 0 0 0 0 0 0 0 0 0 0 0 0 0 0 0 0 0 0.25 0"/>
<feBlend mode="normal" in2="BackgroundImageFix" result="effect1_dropShadow_4_357"/>
<feBlend mode="normal" in="SourceGraphic" in2="effect1_dropShadow_4_357" result="shape"/>
</filter>
</defs>
</svg>
