<svg width="881" height="237" viewBox="0 0 881 237" fill="none" xmlns="http://www.w3.org/2000/svg">
<path d="M816.5 123.5L880 141.5V235.5L839.929 219.523L792.462 195.957L746.027 172.391L702.172 149.896L666.571 132.221L627.875 112.94L580.408 92.0513L539.648 77.5902L497.341 64.7359L456.581 55.6308L418.401 49.2037L383.317 45.9901L346.168 43.8477H317.791L283.739 45.9901L248.654 50.8104L215.118 56.702L183.129 63.6647L151.656 72.7699L116.572 84.553L78.908 99.0141L42.2757 116.153L1 138.5L24.2176 120.974L70.6528 90.9801L101.61 72.7699L134.114 56.702L166.103 42.2409L200.671 29.9222L234.724 20.2815L271.872 11.7119L309.536 4.21358L345.652 1H381.253L411.694 2.60679L441.103 4.74917L476.187 9.03394L508.692 14.9255L545.324 22.9594L585.052 34.207L627.875 49.7392L674.5 68L707.714 81.1728L747 97L785 112L816.5 123.5Z" fill="#38434C" stroke="#38434C"/>
</svg>
